<svg xmlns="http://www.w3.org/2000/svg" viewBox="0 0 1440 220" preserveAspectRatio="none">
  <defs>
    <linearGradient id="g1" x1="0" x2="1" y1="0" y2="0">
      <stop offset="0" stop-color="#6EE7B7"/>
      <stop offset="1" stop-color="#3B82F6"/>
    </linearGradient>
  </defs>
  <path fill="url(#g1)" d="M0,96L48,101.3C96,107,192,117,288,128C384,139,480,149,576,144C672,139,768,117,864,112C960,107,1056,117,1152,122.7C1248,128,1344,128,1392,128L1440,128L1440,0L1392,0C1344,0,1248,0,1152,0C1056,0,960,0,864,0C768,0,672,0,576,0C480,0,384,0,288,0C192,0,96,0,48,0L0,0Z"/>
</svg>
