<svg xmlns="http://www.w3.org/2000/svg" viewBox="0 0 1440 200" preserveAspectRatio="none">
  <defs>
    <linearGradient id="g2" x1="0" x2="1" y1="0" y2="0">
      <stop offset="0" stop-color="#3B82F6"/>
      <stop offset="1" stop-color="#6366F1"/>
    </linearGradient>
  </defs>
  <path fill="url(#g2)" d="M0,32L48,53.3C96,75,192,117,288,141.3C384,165,480,171,576,154.7C672,139,768,101,864,90.7C960,80,1056,96,1152,117.3C1248,139,1344,165,1392,178.7L1440,192L1440,200L1392,200C1344,200,1248,200,1152,200C1056,200,960,200,864,200C768,200,672,200,576,200C480,200,384,200,288,200C192,200,96,200,48,200L0,200Z"/>
</svg>
